<svg xmlns="http://www.w3.org/2000/svg" xmlns:xlink="http://www.w3.org/1999/xlink" viewBox="0 0 32 32" fill="#fff">
  <path d="M12.886719 3C10.949219 3 9.289063 4.386719 8.945313 6.292969L8.820313 7L6 7C3.789063 7 2 8.789063 2 11L2 24C2 26.210938 3.789063 28 6 28L26 28C28.210938 28 30 26.210938 30 24L30 11C30 8.789063 28.210938 7 26 7L23.179688 7L23.050781 6.292969C22.710938 4.386719 21.050781 3 19.113281 3 Z M 12.886719 5L19.113281 5C20.085938 5 20.914063 5.691406 21.085938 6.648438L21.214844 7.351563C21.382813 8.304688 22.210938 9 23.179688 9L26 9C27.101563 9 28 9.898438 28 11L28 24C28 25.101563 27.101563 26 26 26L6 26C4.898438 26 4 25.101563 4 24L4 11C4 9.898438 4.898438 9 6 9L8.820313 9C9.789063 9 10.617188 8.304688 10.789063 7.351563L10.917969 6.648438C11.085938 5.695313 11.914063 5 12.886719 5 Z M 16 11C12.410156 11 9.5 13.910156 9.5 17.5C9.5 21.089844 12.410156 24 16 24C19.589844 24 22.5 21.089844 22.5 17.5C22.5 13.910156 19.589844 11 16 11 Z M 16 13C18.480469 13 20.5 15.019531 20.5 17.5C20.5 19.980469 18.480469 22 16 22C13.519531 22 11.5 19.980469 11.5 17.5C11.5 15.019531 13.519531 13 16 13Z" fill="#fff" />
</svg>