<svg xmlns="http://www.w3.org/2000/svg" xmlns:xlink="http://www.w3.org/1999/xlink" viewBox="0 0 32 32" fill="#000000">
  <path d="M3 7L3 25L16.0625 25C16.5625 28.933594 19.933594 32 24 32C28.40625 32 32 28.40625 32 24C32 21.480469 30.828125 19.25 29 17.78125L29 7 Z M 7.3125 9L24.6875 9L16 14.78125 Z M 5 9.875L15.4375 16.84375L16 17.1875L16.5625 16.84375L27 9.875L27 16.59375C26.070313 16.210938 25.066406 16 24 16C19.933594 16 16.5625 19.066406 16.0625 23L5 23 Z M 24 18C27.324219 18 30 20.675781 30 24C30 27.324219 27.324219 30 24 30C20.675781 30 18 27.324219 18 24C18 20.675781 20.675781 18 24 18 Z M 23 20L23 23L20 23L20 25L23 25L23 28L25 28L25 25L28 25L28 23L25 23L25 20Z" fill="#000000" />
</svg>