<svg xmlns="http://www.w3.org/2000/svg" xmlns:xlink="http://www.w3.org/1999/xlink" viewBox="0 0 80 80" fill="#0000" width="30px" height="30px">
  <path d="M31 12C27.144531 12 24 15.144531 24 19C24 22.855469 27.144531 26 31 26C34.855469 26 38 22.855469 38 19C38 15.144531 34.855469 12 31 12 Z M 49 12C45.144531 12 42 15.144531 42 19C42 22.855469 45.144531 26 49 26C52.855469 26 56 22.855469 56 19C56 15.144531 52.855469 12 49 12 Z M 31 14C33.773438 14 36 16.226563 36 19C36 21.773438 33.773438 24 31 24C28.226563 24 26 21.773438 26 19C26 16.226563 28.226563 14 31 14 Z M 49 14C51.773438 14 54 16.226563 54 19C54 21.773438 51.773438 24 49 24C46.226563 24 44 21.773438 44 19C44 16.226563 46.226563 14 49 14 Z M 18 24C13.59375 24 10 27.59375 10 32C10 36.40625 13.59375 40 18 40C22.40625 40 26 36.40625 26 32C26 27.59375 22.40625 24 18 24 Z M 62 24C57.59375 24 54 27.59375 54 32C54 36.40625 57.59375 40 62 40C66.40625 40 70 36.40625 70 32C70 27.59375 66.40625 24 62 24 Z M 18 26C21.324219 26 24 28.675781 24 32C24 35.324219 21.324219 38 18 38C14.675781 38 12 35.324219 12 32C12 28.675781 14.675781 26 18 26 Z M 62 26C65.324219 26 68 28.675781 68 32C68 35.324219 65.324219 38 62 38C58.675781 38 56 35.324219 56 32C56 31.792969 56.011719 31.585938 56.03125 31.386719C56.335938 28.351563 58.882813 26 62 26 Z M 40 31C35.042969 31 31 35.042969 31 40C31 44.957031 35.042969 49 40 49C44.957031 49 49 44.957031 49 40C49 35.042969 44.957031 31 40 31 Z M 40 33C43.878906 33 47 36.121094 47 40C47 43.878906 43.878906 47 40 47C36.121094 47 33 43.878906 33 40C33 36.121094 36.121094 33 40 33 Z M 18 42C10.304688 42 4 48.304688 4 56L4 60L26.269531 60C25.457031 61.839844 25 63.867188 25 66L25 70L55 70L55 66C55 63.867188 54.542969 61.839844 53.730469 60L76 60L76 56C76 48.304688 69.695313 42 62 42C56.875 42 52.375 44.796875 49.9375 48.9375C49.125 50.328125 48.554688 51.871094 48.253906 53.503906C45.882813 51.925781 43.046875 51 40 51C36.953125 51 34.117188 51.925781 31.746094 53.503906C30.554688 46.988281 24.839844 42 18 42 Z M 18 44C24.246094 44 29.378906 48.832031 29.921875 54.941406C28.933594 55.84375 28.066406 56.867188 27.347656 58L6 58L6 56C6 49.394531 11.394531 44 18 44 Z M 62 44C68.605469 44 74 49.394531 74 56L74 58L52.652344 58C51.933594 56.867188 51.066406 55.84375 50.078125 54.941406C50.621094 48.832031 55.753906 44 62 44 Z M 40 53C47.15625 53 53 58.84375 53 66L53 68L27 68L27 66C27 58.84375 32.84375 53 40 53 Z M 8 54C7.449219 54 7 54.449219 7 55C7 55.550781 7.449219 56 8 56C8.550781 56 9 55.550781 9 55C9 54.449219 8.550781 54 8 54 Z M 12 54C11.449219 54 11 54.449219 11 55C11 55.550781 11.449219 56 12 56C12.550781 56 13 55.550781 13 55C13 54.449219 12.550781 54 12 54 Z M 16 54C15.449219 54 15 54.449219 15 55C15 55.550781 15.449219 56 16 56C16.550781 56 17 55.550781 17 55C17 54.449219 16.550781 54 16 54 Z M 20 54C19.449219 54 19 54.449219 19 55C19 55.550781 19.449219 56 20 56C20.550781 56 21 55.550781 21 55C21 54.449219 20.550781 54 20 54 Z M 24 54C23.449219 54 23 54.449219 23 55C23 55.550781 23.449219 56 24 56C24.550781 56 25 55.550781 25 55C25 54.449219 24.550781 54 24 54 Z M 28 54C27.449219 54 27 54.449219 27 55C27 55.550781 27.449219 56 28 56C28.550781 56 29 55.550781 29 55C29 54.449219 28.550781 54 28 54 Z M 52 54C51.449219 54 51 54.449219 51 55C51 55.550781 51.449219 56 52 56C52.550781 56 53 55.550781 53 55C53 54.449219 52.550781 54 52 54 Z M 56 54C55.449219 54 55 54.449219 55 55C55 55.550781 55.449219 56 56 56C56.550781 56 57 55.550781 57 55C57 54.449219 56.550781 54 56 54 Z M 60 54C59.449219 54 59 54.449219 59 55C59 55.550781 59.449219 56 60 56C60.550781 56 61 55.550781 61 55C61 54.449219 60.550781 54 60 54 Z M 64 54C63.449219 54 63 54.449219 63 55C63 55.550781 63.449219 56 64 56C64.550781 56 65 55.550781 65 55C65 54.449219 64.550781 54 64 54 Z M 68 54C67.449219 54 67 54.449219 67 55C67 55.550781 67.449219 56 68 56C68.550781 56 69 55.550781 69 55C69 54.449219 68.550781 54 68 54 Z M 72 54C71.449219 54 71 54.449219 71 55C71 55.550781 71.449219 56 72 56C72.550781 56 73 55.550781 73 55C73 54.449219 72.550781 54 72 54 Z M 30 64C29.449219 64 29 64.449219 29 65C29 65.550781 29.449219 66 30 66C30.550781 66 31 65.550781 31 65C31 64.449219 30.550781 64 30 64 Z M 34 64C33.449219 64 33 64.449219 33 65C33 65.550781 33.449219 66 34 66C34.550781 66 35 65.550781 35 65C35 64.449219 34.550781 64 34 64 Z M 38 64C37.449219 64 37 64.449219 37 65C37 65.550781 37.449219 66 38 66C38.550781 66 39 65.550781 39 65C39 64.449219 38.550781 64 38 64 Z M 42 64C41.449219 64 41 64.449219 41 65C41 65.550781 41.449219 66 42 66C42.550781 66 43 65.550781 43 65C43 64.449219 42.550781 64 42 64 Z M 46 64C45.449219 64 45 64.449219 45 65C45 65.550781 45.449219 66 46 66C46.550781 66 47 65.550781 47 65C47 64.449219 46.550781 64 46 64 Z M 50 64C49.449219 64 49 64.449219 49 65C49 65.550781 49.449219 66 50 66C50.550781 66 51 65.550781 51 65C51 64.449219 50.550781 64 50 64Z" fill="#000" />
</svg>